
          <svg xmlns="http://www.w3.org/2000/svg" xmlns:cc="http://creativecommons.org/ns#" xmlns:rdf="http://www.w3.org/1999/02/22-rdf-syntax-ns#" version="1.1" width="790.625" height="639">
            <defs>
              <style type="text/css">svg {
          background-color: #fff; }
        
        .root text,
        .root tspan {
          font: 12px Arial; }
        
        .root path {
          fill-opacity: 0;
          stroke-width: 2px;
          stroke: #000; }
        
        .root circle {
          fill: #6b6659;
          stroke-width: 2px;
          stroke: #000; }
        
        .anchor text, .any-character text {
          fill: #fff; }
        
        .anchor rect, .any-character rect {
          fill: #6b6659; }
        
        .escape text, .charset-escape text, .literal text {
          fill: #000; }
        
        .escape rect, .charset-escape rect {
          fill: #bada55; }
        
        .literal rect {
          fill: #dae9e5; }
        
        .charset .charset-box {
          fill: #cbcbba; }
        
        .subexp .subexp-label tspan,
        .charset .charset-label tspan,
        .match-fragment .repeat-label tspan {
          font-size: 10px; }
        
        .repeat-label {
          cursor: help; }
        
        .subexp .subexp-label tspan,
        .charset .charset-label tspan {
          dominant-baseline: text-after-edge; }
        
        .subexp .subexp-box {
          stroke: #908c83;
          stroke-dasharray: 6,2;
          stroke-width: 2px;
          fill-opacity: 0; }
        
        .quote {
          fill: #908c83; }
        </style>
            </defs>
            <metadata>
              <rdf:rdf>
                <cc:license rdf:about="http://creativecommons.org/licenses/by/3.0/">
                  <cc:permits rdf:resource="http://creativecommons.org/ns#Reproduction"></cc:permits>
                  <cc:permits rdf:resource="http://creativecommons.org/ns#Distribution"></cc:permits>
                  <cc:requires rdf:resource="http://creativecommons.org/ns#Notice"></cc:requires>
                  <cc:requires rdf:resource="http://creativecommons.org/ns#Attribution"></cc:requires>
                  <cc:permits rdf:resource="http://creativecommons.org/ns#DerivativeWorks"></cc:permits>
                </cc:license>
              </rdf:rdf>
            </metadata>
          <desc>Created with Snap</desc><g class="root" transform="matrix(1,0,0,1,15,10)"><g class="regexp" transform="matrix(1,0,0,1,10,0)"><path d="M10,279.5q0,-10 10,-10M730.625,279.5q0,-10 -10,-10M10,577q0,10 10,10M730.625,577q0,10 -10,10M0,309.5q10,0 10,-10V279.5M740.625,309.5q-10,0 -10,-10V279.5M0,309.5q10,0 10,10V577M740.625,309.5q-10,0 -10,10V577"></path><g transform="matrix(1,0,0,1,20,0)" class="regexp-matches"><path d="M0,269.5h0M700.625025,269.5H700.625M0,587h321.9687M393.65625,587H700.625"></path><g class="match match-fragment subexp regexp" transform="matrix(1,0,0,1,0,0)"><path d="M607.265625,269.5H632.2656M653.60935,269.5H678.6094"></path><g class="match-fragment subexp regexp" transform="matrix(1,0,0,1,0,0)"><path d="M10,152.5q0,-10 10,-10M597.265625,152.5q0,-10 -10,-10M10,409.5q0,10 10,10M597.265625,409.5q0,10 -10,10M0,269.5q10,0 10,-10V152.5M607.265625,269.5q-10,0 -10,-10V152.5M0,269.5q10,0 10,10V409.5M607.265625,269.5q-10,0 -10,10V409.5"></path><g transform="matrix(1,0,0,1,20,0)" class="regexp-matches"><path d="M0,142.5h220.125M322.140625,142.5H567.265625M0,419.5h45M517.265625,419.5H567.265625"></path><g class="match match-fragment subexp" transform="matrix(1,0,0,1,210.125,0)"><rect rx="3" ry="3" class="subexp-box" transform="matrix(1,0,0,1,0,11)" width="147.015625" height="251"></rect><text x="0" y="0" class="subexp-label" transform="matrix(1,0,0,1,0,11)"><tspan>group #1</tspan></text><g class="regexp match" transform="matrix(1,0,0,1,10,21)"><path d="M26,121.5H56"></path><g class="match-fragment literal" transform="matrix(1,0,0,1,0,109.5)"><g class="label"><rect width="26" height="24" rx="3" ry="3"></rect><text x="0" y="0" transform="matrix(1,0,0,1,5,17)"><tspan class="quote">“</tspan><tspan>&amp;</tspan><tspan class="quote">”</tspan></text></g></g><g class="match-fragment subexp" transform="matrix(1,0,0,1,36,0)"><rect rx="3" ry="3" class="subexp-box" transform="matrix(1,0,0,1,0,11)" width="91.015625" height="220"></rect><text x="0" y="0" class="subexp-label" transform="matrix(1,0,0,1,0,11)"><tspan>group #2</tspan></text><g class="regexp match match-fragment" transform="matrix(1,0,0,1,10,21)"><path d="M10,100.5q-10,0 -10,10v79.5q0,10 10,10h46.015625q10,0 10,-10v-79.5q0,-10 -10,-10M66.015625,115.5l5,-5m-5,5l-5,-5"></path><g class="charset" transform="matrix(1,0,0,1,10,0)"><rect rx="3" ry="3" class="charset-box" transform="matrix(1,0,0,1,0,11)" width="46.015625" height="179"></rect><text x="0" y="0" class="charset-label" transform="matrix(1,0,0,1,0,11)"><tspan>One of:</tspan></text><g transform="matrix(1,0,0,1,5,16)"><g class="charset-escape" transform="matrix(1,0,0,1,0,0)"><g class="label"><rect width="36.015625" height="24" rx="3" ry="3"></rect><text x="0" y="0" transform="matrix(1,0,0,1,5,17)"><tspan>word</tspan></text></g></g><g class="literal" transform="matrix(1,0,0,1,7.3359,29)"><g class="label"><rect width="21.34375" height="24" rx="3" ry="3"></rect><text x="0" y="0" transform="matrix(1,0,0,1,5,17)"><tspan class="quote">“</tspan><tspan>,</tspan><tspan class="quote">”</tspan></text></g></g><g class="literal" transform="matrix(1,0,0,1,7.3359,58)"><g class="label"><rect width="21.34375" height="24" rx="3" ry="3"></rect><text x="0" y="0" transform="matrix(1,0,0,1,5,17)"><tspan class="quote">“</tspan><tspan>.</tspan><tspan class="quote">”</tspan></text></g></g><g class="literal" transform="matrix(1,0,0,1,5.5,87)"><g class="label"><rect width="25.015625" height="24" rx="3" ry="3"></rect><text x="0" y="0" transform="matrix(1,0,0,1,5,17)"><tspan class="quote">“</tspan><tspan>+</tspan><tspan class="quote">”</tspan></text></g></g><g class="literal" transform="matrix(1,0,0,1,7.0078,116)"><g class="label"><rect width="22" height="24" rx="3" ry="3"></rect><text x="0" y="0" transform="matrix(1,0,0,1,5,17)"><tspan class="quote">“</tspan><tspan>-</tspan><tspan class="quote">”</tspan></text></g></g><g class="literal" transform="matrix(1,0,0,1,7.3359,145)"><g class="label"><rect width="21.34375" height="24" rx="3" ry="3"></rect><text x="0" y="0" transform="matrix(1,0,0,1,5,17)"><tspan class="quote">“</tspan><tspan>/</tspan><tspan class="quote">”</tspan></text></g></g></g></g></g></g></g></g><g class="match match-fragment subexp" transform="matrix(1,0,0,1,0,267)"><rect rx="3" ry="3" class="subexp-box" transform="matrix(1,0,0,1,0,11)" width="567.265625" height="261"></rect><text x="0" y="0" class="subexp-label" transform="matrix(1,0,0,1,0,11)"><tspan>group #3</tspan></text><g class="regexp match" transform="matrix(1,0,0,1,10,21)"><path d="M245.04685,131.5H305.0468M351.062425,131.5H401.0625"></path><g class="match-fragment" transform="matrix(1,0,0,1,0,0)"><path d="M0,131.5q10,0 10,-10v-111.5q0,-10 10,-10h235.04684448242188q10,0 10,10v111.5q0,10 10,10"></path><g class="subexp regexp match" transform="matrix(1,0,0,1,15,10)"><path d="M66.015625,121.5H116.0156M137.35935,121.5H162.3594M183.70315,121.5H208.7031"></path><g class="match-fragment subexp" transform="matrix(1,0,0,1,0,0)"><rect rx="3" ry="3" class="subexp-box" transform="matrix(1,0,0,1,0,11)" width="91.015625" height="220"></rect><text x="0" y="0" class="subexp-label" transform="matrix(1,0,0,1,0,11)"><tspan>group #4</tspan></text><g class="regexp match match-fragment" transform="matrix(1,0,0,1,10,21)"><path d="M10,100.5q-10,0 -10,10v79.5q0,10 10,10h46.015625q10,0 10,-10v-79.5q0,-10 -10,-10M66.015625,115.5l5,-5m-5,5l-5,-5"></path><g class="charset" transform="matrix(1,0,0,1,10,0)"><rect rx="3" ry="3" class="charset-box" transform="matrix(1,0,0,1,0,11)" width="46.015625" height="179"></rect><text x="0" y="0" class="charset-label" transform="matrix(1,0,0,1,0,11)"><tspan>One of:</tspan></text><g transform="matrix(1,0,0,1,5,16)"><g class="charset-escape" transform="matrix(1,0,0,1,0,0)"><g class="label"><rect width="36.015625" height="24" rx="3" ry="3"></rect><text x="0" y="0" transform="matrix(1,0,0,1,5,17)"><tspan>word</tspan></text></g></g><g class="literal" transform="matrix(1,0,0,1,7.3359,29)"><g class="label"><rect width="21.34375" height="24" rx="3" ry="3"></rect><text x="0" y="0" transform="matrix(1,0,0,1,5,17)"><tspan class="quote">“</tspan><tspan>,</tspan><tspan class="quote">”</tspan></text></g></g><g class="literal" transform="matrix(1,0,0,1,7.3359,58)"><g class="label"><rect width="21.34375" height="24" rx="3" ry="3"></rect><text x="0" y="0" transform="matrix(1,0,0,1,5,17)"><tspan class="quote">“</tspan><tspan>.</tspan><tspan class="quote">”</tspan></text></g></g><g class="literal" transform="matrix(1,0,0,1,5.5,87)"><g class="label"><rect width="25.015625" height="24" rx="3" ry="3"></rect><text x="0" y="0" transform="matrix(1,0,0,1,5,17)"><tspan class="quote">“</tspan><tspan>+</tspan><tspan class="quote">”</tspan></text></g></g><g class="literal" transform="matrix(1,0,0,1,7.0078,116)"><g class="label"><rect width="22" height="24" rx="3" ry="3"></rect><text x="0" y="0" transform="matrix(1,0,0,1,5,17)"><tspan class="quote">“</tspan><tspan>-</tspan><tspan class="quote">”</tspan></text></g></g><g class="literal" transform="matrix(1,0,0,1,7.3359,145)"><g class="label"><rect width="21.34375" height="24" rx="3" ry="3"></rect><text x="0" y="0" transform="matrix(1,0,0,1,5,17)"><tspan class="quote">“</tspan><tspan>/</tspan><tspan class="quote">”</tspan></text></g></g></g></g></g></g><g class="match-fragment" transform="matrix(1,0,0,1,101.0156,99.5)"><path d="M0,22q10,0 10,-10v-2q0,-10 10,-10h11.34375q10,0 10,10v2q0,10 10,10M15,22q-10,0 -10,10v2q0,10 10,10h21.34375q10,0 10,-10v-2q0,-10 -10,-10M46.34375,37l5,-5m-5,5l-5,-5"></path><g class="literal" transform="matrix(1,0,0,1,15,10)"><g class="label"><rect width="21.34375" height="24" rx="3" ry="3"></rect><text x="0" y="0" transform="matrix(1,0,0,1,5,17)"><tspan class="quote">“</tspan><tspan> </tspan><tspan class="quote">”</tspan></text></g></g></g><g class="match-fragment literal" transform="matrix(1,0,0,1,162.3594,109.5)"><g class="label"><rect width="21.34375" height="24" rx="3" ry="3"></rect><text x="0" y="0" transform="matrix(1,0,0,1,5,17)"><tspan class="quote">“</tspan><tspan>:</tspan><tspan class="quote">”</tspan></text></g></g><g class="match-fragment" transform="matrix(1,0,0,1,193.7031,99.5)"><path d="M0,22q10,0 10,-10v-2q0,-10 10,-10h11.34375q10,0 10,10v2q0,10 10,10M15,22q-10,0 -10,10v2q0,10 10,10h21.34375q10,0 10,-10v-2q0,-10 -10,-10M46.34375,37l5,-5m-5,5l-5,-5"></path><g class="literal" transform="matrix(1,0,0,1,15,10)"><g class="label"><rect width="21.34375" height="24" rx="3" ry="3"></rect><text x="0" y="0" transform="matrix(1,0,0,1,5,17)"><tspan class="quote">“</tspan><tspan> </tspan><tspan class="quote">”</tspan></text></g></g></g></g></g><g class="match-fragment subexp" transform="matrix(1,0,0,1,285.0468,10)"><rect rx="3" ry="3" class="subexp-box" transform="matrix(1,0,0,1,0,11)" width="91.015625" height="220"></rect><text x="0" y="0" class="subexp-label" transform="matrix(1,0,0,1,0,11)"><tspan>group #5</tspan></text><g class="regexp match match-fragment" transform="matrix(1,0,0,1,10,21)"><path d="M10,100.5q-10,0 -10,10v79.5q0,10 10,10h46.015625q10,0 10,-10v-79.5q0,-10 -10,-10M66.015625,115.5l5,-5m-5,5l-5,-5"></path><g class="charset" transform="matrix(1,0,0,1,10,0)"><rect rx="3" ry="3" class="charset-box" transform="matrix(1,0,0,1,0,11)" width="46.015625" height="179"></rect><text x="0" y="0" class="charset-label" transform="matrix(1,0,0,1,0,11)"><tspan>One of:</tspan></text><g transform="matrix(1,0,0,1,5,16)"><g class="charset-escape" transform="matrix(1,0,0,1,0,0)"><g class="label"><rect width="36.015625" height="24" rx="3" ry="3"></rect><text x="0" y="0" transform="matrix(1,0,0,1,5,17)"><tspan>word</tspan></text></g></g><g class="literal" transform="matrix(1,0,0,1,7.3359,29)"><g class="label"><rect width="21.34375" height="24" rx="3" ry="3"></rect><text x="0" y="0" transform="matrix(1,0,0,1,5,17)"><tspan class="quote">“</tspan><tspan>,</tspan><tspan class="quote">”</tspan></text></g></g><g class="literal" transform="matrix(1,0,0,1,7.3359,58)"><g class="label"><rect width="21.34375" height="24" rx="3" ry="3"></rect><text x="0" y="0" transform="matrix(1,0,0,1,5,17)"><tspan class="quote">“</tspan><tspan>.</tspan><tspan class="quote">”</tspan></text></g></g><g class="literal" transform="matrix(1,0,0,1,5.5,87)"><g class="label"><rect width="25.015625" height="24" rx="3" ry="3"></rect><text x="0" y="0" transform="matrix(1,0,0,1,5,17)"><tspan class="quote">“</tspan><tspan>+</tspan><tspan class="quote">”</tspan></text></g></g><g class="literal" transform="matrix(1,0,0,1,7.0078,116)"><g class="label"><rect width="22" height="24" rx="3" ry="3"></rect><text x="0" y="0" transform="matrix(1,0,0,1,5,17)"><tspan class="quote">“</tspan><tspan>-</tspan><tspan class="quote">”</tspan></text></g></g><g class="literal" transform="matrix(1,0,0,1,7.3359,145)"><g class="label"><rect width="21.34375" height="24" rx="3" ry="3"></rect><text x="0" y="0" transform="matrix(1,0,0,1,5,17)"><tspan class="quote">“</tspan><tspan>/</tspan><tspan class="quote">”</tspan></text></g></g></g></g></g></g><g class="match-fragment" transform="matrix(1,0,0,1,386.0625,14.5)"><path d="M0,117q10,0 10,-10v-97q0,-10 10,-10h121.203125q10,0 10,10v97q0,10 10,10"></path><g class="subexp regexp match" transform="matrix(1,0,0,1,15,10)"><path d="M30.1875,107H60.1875"></path><g class="match-fragment literal" transform="matrix(1,0,0,1,0,95)"><g class="label"><rect width="30.1875" height="24" rx="3" ry="3"></rect><text x="0" y="0" transform="matrix(1,0,0,1,5,17)"><tspan class="quote">“</tspan><tspan>@</tspan><tspan class="quote">”</tspan></text></g></g><g class="match-fragment subexp" transform="matrix(1,0,0,1,40.1875,0)"><rect rx="3" ry="3" class="subexp-box" transform="matrix(1,0,0,1,0,11)" width="91.015625" height="191"></rect><text x="0" y="0" class="subexp-label" transform="matrix(1,0,0,1,0,11)"><tspan>group #6</tspan></text><g class="regexp match match-fragment" transform="matrix(1,0,0,1,10,21)"><path d="M10,86q-10,0 -10,10v65q0,10 10,10h46.015625q10,0 10,-10v-65q0,-10 -10,-10M66.015625,101l5,-5m-5,5l-5,-5"></path><g class="charset" transform="matrix(1,0,0,1,10,0)"><rect rx="3" ry="3" class="charset-box" transform="matrix(1,0,0,1,0,11)" width="46.015625" height="150"></rect><text x="0" y="0" class="charset-label" transform="matrix(1,0,0,1,0,11)"><tspan>One of:</tspan></text><g transform="matrix(1,0,0,1,5,16)"><g class="charset-escape" transform="matrix(1,0,0,1,0,0)"><g class="label"><rect width="36.015625" height="24" rx="3" ry="3"></rect><text x="0" y="0" transform="matrix(1,0,0,1,5,17)"><tspan>word</tspan></text></g></g><g class="literal" transform="matrix(1,0,0,1,7.3359,29)"><g class="label"><rect width="21.34375" height="24" rx="3" ry="3"></rect><text x="0" y="0" transform="matrix(1,0,0,1,5,17)"><tspan class="quote">“</tspan><tspan>,</tspan><tspan class="quote">”</tspan></text></g></g><g class="literal" transform="matrix(1,0,0,1,7.3359,58)"><g class="label"><rect width="21.34375" height="24" rx="3" ry="3"></rect><text x="0" y="0" transform="matrix(1,0,0,1,5,17)"><tspan class="quote">“</tspan><tspan>.</tspan><tspan class="quote">”</tspan></text></g></g><g class="literal" transform="matrix(1,0,0,1,5.5,87)"><g class="label"><rect width="25.015625" height="24" rx="3" ry="3"></rect><text x="0" y="0" transform="matrix(1,0,0,1,5,17)"><tspan class="quote">“</tspan><tspan>+</tspan><tspan class="quote">”</tspan></text></g></g><g class="literal" transform="matrix(1,0,0,1,7.0078,116)"><g class="label"><rect width="22" height="24" rx="3" ry="3"></rect><text x="0" y="0" transform="matrix(1,0,0,1,5,17)"><tspan class="quote">“</tspan><tspan>-</tspan><tspan class="quote">”</tspan></text></g></g></g></g></g></g></g></g></g></g></g></g><g class="match-fragment" transform="matrix(1,0,0,1,617.2656,247.5)"><path d="M0,22q10,0 10,-10v-2q0,-10 10,-10h11.34375q10,0 10,10v2q0,10 10,10M15,22q-10,0 -10,10v2q0,10 10,10h21.34375q10,0 10,-10v-2q0,-10 -10,-10M46.34375,37l5,-5m-5,5l-5,-5"></path><g class="literal" transform="matrix(1,0,0,1,15,10)"><g class="label"><rect width="21.34375" height="24" rx="3" ry="3"></rect><text x="0" y="0" transform="matrix(1,0,0,1,5,17)"><tspan class="quote">“</tspan><tspan> </tspan><tspan class="quote">”</tspan></text></g></g></g><g class="match-fragment literal" transform="matrix(1,0,0,1,678.6094,257.5)"><g class="label"><rect width="22.015625" height="24" rx="3" ry="3"></rect><text x="0" y="0" transform="matrix(1,0,0,1,5,17)"><tspan class="quote">“</tspan><tspan>{</tspan><tspan class="quote">”</tspan></text></g></g></g><g class="match match-fragment subexp" transform="matrix(1,0,0,1,296.9687,544)"><rect rx="3" ry="3" class="subexp-box" transform="matrix(1,0,0,1,0,11)" width="106.68754577636719" height="64"></rect><text x="0" y="0" class="subexp-label" transform="matrix(1,0,0,1,0,11)"><tspan>group #7</tspan></text><g class="regexp match" transform="matrix(1,0,0,1,10,21)"><path d="M36.34375,22H61.3438"></path><g class="match-fragment" transform="matrix(1,0,0,1,0,0)"><path d="M0,22q10,0 10,-10v-2q0,-10 10,-10h11.34375q10,0 10,10v2q0,10 10,10M15,22q-10,0 -10,10v2q0,10 10,10h21.34375q10,0 10,-10v-2q0,-10 -10,-10M46.34375,37l5,-5m-5,5l-5,-5"></path><g class="literal" transform="matrix(1,0,0,1,15,10)"><g class="label"><rect width="21.34375" height="24" rx="3" ry="3"></rect><text x="0" y="0" transform="matrix(1,0,0,1,5,17)"><tspan class="quote">“</tspan><tspan> </tspan><tspan class="quote">”</tspan></text></g></g></g><g class="match-fragment literal" transform="matrix(1,0,0,1,61.3438,10)"><g class="label"><rect width="25.34375" height="24" rx="3" ry="3"></rect><text x="0" y="0" transform="matrix(1,0,0,1,5,17)"><tspan class="quote">“</tspan><tspan>};</tspan><tspan class="quote">”</tspan></text></g></g></g></g></g></g><path d="M10,309.5H0M750.625,309.5H760.625"></path><circle cx="0" cy="309.5" r="5"></circle><circle cx="760.625" cy="309.5" r="5"></circle></g></svg>
        